<?xml version="1.0" encoding="iso-8859-1"?>
<!-- Generator: Adobe Illustrator 19.0.0, SVG Export Plug-In . SVG Version: 6.00 Build 0)  -->
<svg version="1.1" id="Capa_1" xmlns="http://www.w3.org/2000/svg" xmlns:xlink="http://www.w3.org/1999/xlink" x="0px" y="0px"
	 viewBox="0 0 60 60" style="enable-background:new 0 0 60 60;" xml:space="preserve">
<g>
	<g>
		<path d="M2,34H0v25c0,0.6,0.4,1,1,1h26v-2H2V34z"/>
		<path d="M58,58H33v2h26c0.6,0,1-0.4,1-1V34h-2V58z"/>
		<path d="M59,0H33v2h25v6H36v2h22v18h2V1C60,0.4,59.6,0,59,0z"/>
		<path d="M2,10h22V8H2V2h25V0H1C0.4,0,0,0.4,0,1v27h2V10z"/>
		<rect x="4" y="4" width="2" height="2"/>
		<rect x="8" y="4" width="2" height="2"/>
		<rect x="12" y="4" width="2" height="2"/>
		<rect x="52" y="4" width="4" height="2"/>
		<path d="M16,16v10v10v10c0,0.6,0.4,1,1,1h26c0.6,0,1-0.4,1-1V36V26V16c0-0.6-0.4-1-1-1H17C16.4,15,16,15.4,16,16z M42,35H18v-8h24
			V35z M42,45H18v-8h24V45z M18,17h24v8H18V17z"/>
		<rect x="20" y="19" width="2" height="4"/>
		<rect x="24" y="19" width="2" height="4"/>
		<rect x="28" y="19" width="2" height="4"/>
		<rect x="20" y="29" width="2" height="4"/>
		<rect x="24" y="29" width="2" height="4"/>
		<rect x="28" y="29" width="2" height="4"/>
		<rect x="34" y="20" width="2" height="2"/>
		<rect x="38" y="20" width="2" height="2"/>
		<rect x="34" y="30" width="2" height="2"/>
		<rect x="38" y="30" width="2" height="2"/>
		<rect x="29" y="40" width="6" height="2"/>
		<rect x="37" y="40" width="2" height="2"/>
		<rect x="25" y="40" width="2" height="2"/>
		<rect x="21" y="40" width="2" height="2"/>
		<path d="M51.7,28.7l-1.4-1.4l-3,3c-0.4,0.4-0.4,1,0,1.4l3,3l1.4-1.4L50.4,32H60v-2h-9.6L51.7,28.7z"/>
		<path d="M8.3,33.3l1.4,1.4l3-3c0.4-0.4,0.4-1,0-1.4l-3-3l-1.4,1.4L9.6,30H0v2h9.6L8.3,33.3z"/>
		<path d="M33.7,53.3l-3-3c-0.4-0.4-1-0.4-1.4,0l-3,3l1.4,1.4l1.3-1.3V60h2v-6.6l1.3,1.3L33.7,53.3z"/>
		<path d="M26.3,8.7l3,3c0.2,0.2,0.4,0.3,0.7,0.3s0.5-0.1,0.7-0.3l3-3l-1.4-1.4L31,8.6V0h-2v8.6l-1.3-1.3L26.3,8.7z"/>
	</g>
</g>
<g>
</g>
<g>
</g>
<g>
</g>
<g>
</g>
<g>
</g>
<g>
</g>
<g>
</g>
<g>
</g>
<g>
</g>
<g>
</g>
<g>
</g>
<g>
</g>
<g>
</g>
<g>
</g>
<g>
</g>
</svg>
