<?xml version="1.0" encoding="iso-8859-1"?>
<!-- Generator: Adobe Illustrator 19.0.0, SVG Export Plug-In . SVG Version: 6.00 Build 0)  -->
<svg version="1.1" id="starlinkLogo" xmlns="http://www.w3.org/2000/svg" xmlns:xlink="http://www.w3.org/1999/xlink" x="0px"
	 y="0px" viewBox="0 0 547.103 167.328" style="enable-background:new 0 0 547.103 167.328;" xml:space="preserve">
<g id="starlinkLogo_x5F__x5F_text">
	<g id="text_x5F__x5F_link">
		<g>
			<g>
				<path style="fill-rule:evenodd;clip-rule:evenodd;fill:#DE2626;" d="M527,108.279c6.19-7.537,12.382-15.316,18.572-22.854
					h-16.017c-5.817,7.739-11.636,15.712-17.453,23.458V58.425h-13v77h13v-25.7c0.256,0.385,0.618,0.697,0.875,1.046
					c1.184,1.557,2.368,3.115,3.552,4.672c4.923,6.52,15.573,19.982,15.573,19.982s11.074,0,15,0
					C540.165,126.455,533.938,117.249,527,108.279z"/>
			</g>
		</g>
		<path style="fill-rule:evenodd;clip-rule:evenodd;fill:#DE2626;" d="M491.103,135.425c-4.237,0-8.763,0-13,0
			c0-7.309,0-14.853,0-22.162c0-4.462,0.25-10.171-0.711-11.774c-4.064-6.782-16.974-5.861-21.289-0.062
			c-0.021,11.254,0.021,22.745,0,33.999c-4.217,0-7.783,0-12,0c0-16.508,0-33.492,0-50c4.237,0,7.763,0,12,0c0,1.62,0,3.479,0,5.099
			c2.694-2.013,5.433-3.759,9.136-4.922c1.979-0.621,4.989-1.182,7.603-0.748c1.288,0.125,2.576,0.249,3.864,0.374
			c5.038,1.107,8.892,3.243,11.343,6.915c3.851,5.77,3.49,14.078,3.49,23.736C491.539,122.316,491.103,128.988,491.103,135.425z"/>
		<g>
			<path style="fill:#DE2626;" d="M425.103,135.425c4.237,0,8.763,0,13,0c0-16.508,0-33.492,0-50c-4.237,0-8.763,0-13,0
				C425.103,101.932,425.103,118.917,425.103,135.425z"/>
			<path style="fill:#DE2626;" d="M432.396,75.759c4.429-0.741,8.234-5.557,5.921-10.965c-1.182-2.764-3.663-4.366-7.728-4.299
				c-0.769,0.187-1.537,0.374-2.306,0.561c-1.883,0.739-3.435,2.228-4.176,4.112C421.953,70.648,426.659,76.719,432.396,75.759z"/>
		</g>
		<path style="fill-rule:evenodd;clip-rule:evenodd;fill:#DE2626;" d="M369.103,58.425c4.528,0,9.472,0,14,0c0,21.449,0,42.551,0,64
			c11.591,0,22.409,0,34,0c-0.021,4.215,0.021,8.786,0,13.001c-16.098,0-31.902,0-48,0
			C369.103,109.762,369.103,84.09,369.103,58.425z"/>
	</g>
	<g id="text_x5F__x5F_star">
		<g>
			<path style="fill-rule:evenodd;clip-rule:evenodd;" d="M333.241,135.192c0-16.508,0-33.02,0-49.528c4.237,0,8.476,0,12.714,0
				c0,1.578,0,3.157,0,4.735c0.831-0.914,1.662-1.828,2.493-2.741c2.727-2.154,7.631-3.709,12.776-2.617
				c1.531,0.325,2.589,1.052,3.802,1.557c-1.496,3.966-2.992,7.933-4.487,11.899c-1.511-0.415-2.65-1.406-4.487-1.744
				c-4.738-0.874-9.22,2.022-10.096,5.109c0,8.659,0,17.32,0,25.979c-0.021,2.45-0.042,4.901-0.062,7.351
				C341.676,135.192,337.458,135.192,333.241,135.192z"/>
			<path style="fill-rule:evenodd;clip-rule:evenodd;" d="M303.825,113.2c-2.181,0.853-3.896,0.565-5.297,2.305
				c-2.569,3.19-1.31,7.555,1.994,8.971c4.444,1.904,12.031-0.522,13.275-3.738c0.224-0.579,0.057-4.903-0.125-5.295
				c-0.81-0.436-1.62-0.872-2.431-1.308C309.197,113.302,306.722,113.207,303.825,113.2z M314.669,135.192c0-1.89,0-3.78,0-5.669
				c-0.042,0.021-0.083,0.042-0.125,0.062c-2.128,4.746-13.122,7.676-20.13,5.482c-5.55-1.738-8.701-5.712-9.847-11.899
				c-0.31-1.673-0.174-3.969,0.125-5.482c1.613-8.169,6.419-11.438,14.77-12.896c2.481-0.433,5.788-0.24,7.977,0.311
				c2.398,0.604,4.482,1.459,6.295,2.617c0.021,0,0.042,0,0.062,0c0.148-4.773-0.459-9.066-3.241-11.089
				c-5.277-3.839-14.694-0.249-19.071,1.807c-0.81-2.326-1.62-4.652-2.431-6.977c-0.182-0.517-0.843-1.989-0.623-2.305
				c1.854-1.784,7.444-3.197,10.532-3.925c1.657-0.391,3.579-0.728,5.547-0.748c17.037-0.168,21.252,7.082,21.252,23.923
				c0,2.803,0,5.607,0,8.41c-0.021,6.125-0.042,12.253-0.062,18.378C322.024,135.192,318.346,135.192,314.669,135.192z"/>
			<path style="fill-rule:evenodd;clip-rule:evenodd;" d="M252.105,71.425c4.217,0,8.781,0,12.998,0c0,4.589,0,9.411,0,14
				c5.338,0,15,0,15,0v12c0,0-9.662,0-15,0c0,4.174,0,8.487,0,12.66c-0.001,7.844-0.617,16.854,8.69,14.017
				c1.83-0.558,3.268-1.553,4.612-2.43c1.267,3.239,2.535,6.479,3.802,9.719c-0.674,0.849-1.84,1.304-2.805,1.869
				c-6.21,3.635-18.401,4.652-23.059-1.184c-4.457-5.584-4.238-13.244-4.238-23.3C252.105,96.485,252.105,83.717,252.105,71.425z"/>
			<path style="fill-rule:evenodd;clip-rule:evenodd;" d="M220.251,56.944c9.582-0.16,19.516,2.946,23.433,8.223
				c-2.41,3.385-4.82,6.77-7.229,10.155c-0.187-0.187-0.374-0.374-0.561-0.561c-0.81-0.664-1.62-1.329-2.431-1.994
				c-1.993-1.414-4.324-2.353-7.167-2.928c-5.963-1.206-11.903,0.84-13.649,4.735c-0.451,1.006-0.478,1.894-0.686,3.24
				c-0.278,1.8,0.488,3.837,1.184,4.984c2.85,4.699,9.131,6.747,14.396,9.033c6.692,2.905,13.004,6.11,16.64,12.086
				c1.397,2.296,3.438,7.612,2.742,11.837c-0.331,2.009-0.417,3.879-1.059,5.545c-3.122,8.099-9.494,12.542-18.697,14.578
				c-10.427,2.307-21.207-1.815-26.798-6.105c-1.473-1.13-4.101-3.539-4.549-5.545c2.576-3.052,5.152-6.106,7.728-9.158
				c0.021,0,0.042,0,0.062,0c0.448,0.957,1.508,1.85,2.306,2.492c3.974,3.196,7.202,5.046,13.462,6.105
				c7.242,1.225,14.826-3.566,13.025-10.84c-1.366-5.519-6.981-7.981-11.779-10.092c-8.402-3.697-17.665-7.483-21.314-15.949
				c-1.109-2.572-2.338-6.57-1.683-10.529c0.391-2.362,0.822-4.387,1.62-6.23c1.345-3.106,3.235-5.779,5.734-7.725
				c2.623-2.043,5.674-3.537,9.348-4.548c1.371-0.228,2.742-0.457,4.113-0.685C219.046,57.027,219.649,56.986,220.251,56.944z"/>
		</g>
		<g>
			<path d="M333.241,135.192c0-16.508,0-33.02,0-49.528c4.237,0,8.476,0,12.714,0c0,1.578,0,3.157,0,4.735
				c0.831-0.914,1.662-1.828,2.493-2.741c2.727-2.154,7.631-3.709,12.776-2.617c1.531,0.325,2.589,1.052,3.802,1.557
				c-1.496,3.966-2.992,7.933-4.487,11.899c-1.511-0.415-2.65-1.406-4.487-1.744c-4.738-0.874-9.22,2.022-10.096,5.109
				c0,8.659,0,17.32,0,25.979c-0.021,2.45-0.042,4.901-0.062,7.351C341.676,135.192,337.458,135.192,333.241,135.192z"/>
			<path d="M303.825,113.2c-2.181,0.853-3.896,0.565-5.297,2.305c-2.569,3.19-1.31,7.555,1.994,8.971
				c4.444,1.904,12.031-0.522,13.275-3.738c0.224-0.579,0.057-4.903-0.125-5.295c-0.81-0.436-1.62-0.872-2.431-1.308
				C309.197,113.302,306.722,113.207,303.825,113.2z M314.669,135.192c0-1.89,0-3.78,0-5.669c-0.042,0.021-0.083,0.042-0.125,0.062
				c-2.128,4.746-13.122,7.676-20.13,5.482c-5.55-1.738-8.701-5.712-9.847-11.899c-0.31-1.673-0.174-3.969,0.125-5.482
				c1.613-8.169,6.419-11.438,14.77-12.896c2.481-0.433,5.788-0.24,7.977,0.311c2.398,0.604,4.482,1.459,6.295,2.617
				c0.021,0,0.042,0,0.062,0c0.148-4.773-0.459-9.066-3.241-11.089c-5.277-3.839-14.694-0.249-19.071,1.807
				c-0.81-2.326-1.62-4.652-2.431-6.977c-0.182-0.517-0.843-1.989-0.623-2.305c1.854-1.784,7.444-3.197,10.532-3.925
				c1.657-0.391,3.579-0.728,5.547-0.748c17.037-0.168,21.252,7.082,21.252,23.923c0,2.803,0,5.607,0,8.41
				c-0.021,6.125-0.042,12.253-0.062,18.378C322.024,135.192,318.346,135.192,314.669,135.192z"/>
			<path d="M252.105,71.425c4.217,0,8.781,0,12.998,0c0,4.589,0,9.411,0,14c5.338,0,15,0,15,0v12c0,0-9.662,0-15,0
				c0,4.174,0,8.487,0,12.66c-0.001,7.844-0.617,16.854,8.69,14.017c1.83-0.558,3.268-1.553,4.612-2.43
				c1.267,3.239,2.535,6.479,3.802,9.719c-0.674,0.849-1.84,1.304-2.805,1.869c-6.21,3.635-18.401,4.652-23.059-1.184
				c-4.457-5.584-4.238-13.244-4.238-23.3C252.105,96.485,252.105,83.717,252.105,71.425z"/>
			<path d="M220.251,56.944c9.582-0.16,19.516,2.946,23.433,8.223c-2.41,3.385-4.82,6.77-7.229,10.155
				c-0.187-0.187-0.374-0.374-0.561-0.561c-0.81-0.664-1.62-1.329-2.431-1.994c-1.993-1.414-4.324-2.353-7.167-2.928
				c-5.963-1.206-11.903,0.84-13.649,4.735c-0.451,1.006-0.478,1.894-0.686,3.24c-0.278,1.8,0.488,3.837,1.184,4.984
				c2.85,4.699,9.131,6.747,14.396,9.033c6.692,2.905,13.004,6.11,16.64,12.086c1.397,2.296,3.438,7.612,2.742,11.837
				c-0.331,2.009-0.417,3.879-1.059,5.545c-3.122,8.099-9.494,12.542-18.697,14.578c-10.427,2.307-21.207-1.815-26.798-6.105
				c-1.473-1.13-4.101-3.539-4.549-5.545c2.576-3.052,5.152-6.106,7.728-9.158c0.021,0,0.042,0,0.062,0
				c0.448,0.957,1.508,1.85,2.306,2.492c3.974,3.196,7.202,5.046,13.462,6.105c7.242,1.225,14.826-3.566,13.025-10.84
				c-1.366-5.519-6.981-7.981-11.779-10.092c-8.402-3.697-17.665-7.483-21.314-15.949c-1.109-2.572-2.338-6.57-1.683-10.529
				c0.391-2.362,0.822-4.387,1.62-6.23c1.345-3.106,3.235-5.779,5.734-7.725c2.623-2.043,5.674-3.537,9.348-4.548
				c1.371-0.228,2.742-0.457,4.113-0.685C219.046,57.027,219.649,56.986,220.251,56.944z"/>
		</g>
	</g>
</g>
<g id="starlinkLogo_x5F__x5F_icon">
	<g>
		<path style="fill-rule:evenodd;clip-rule:evenodd;fill:#DE2626;" d="M88.23,12.033c-3.335-0.313-6.573,0.059-10.039,1.569
			c-3.521,1.534-10.606,8.029-6.484,14.013c2.396,3.478,8.75,3.724,9.621,7.843c0.742,3.508-3.646,5.315-6.693,4.392
			c-2.813-0.853-4.622-3.039-6.484-4.706c0.66,3.371,3.053,6.706,4.706,8.47c5.717,6.1,17.719,7.447,24.261,1.987
			c1.011-0.941,3.556-3.068,4.601-6.379c0.533-1.687,0.761-6.151-4.078-8.47c-3.559-1.706-7.304-3.405-7.948-6.17
			c-0.694-2.981,2.795-5.768,6.17-4.915c2.911,0.736,4.354,2.48,6.55,4.659c0.149,0.148,0.561,0.361,0.561,0.361
			C100.545,15.767,94.911,12.66,88.23,12.033z"/>
		<path style="fill-rule:evenodd;clip-rule:evenodd;fill:#DE2626;stroke:#DE2626;stroke-width:2.0773;stroke-miterlimit:15;" d="
			M8.103,41.049c2.285,1.402,8.725,4.726,14.351,8.108c7.736,4.651,15.474,9.277,22.692,14.431c2.443,1.744,5.072,3.817,7.111,5.752
			c2.039,1.935,11.055,9.509,10.248,19.242c-1.061,12.794-15.43,30.207-24.052,42.352c-1.313,1.698-3.428,3.887-4.799,5.688
			c-0.74,0.972-1.363,1.634-1.662,2.167c0.402-0.195,1.402-0.909,2.597-1.717c3.294-2.228,8.337-5.871,9.72-6.869
			c4.758-3.451,18.772-14.056,28.967-20.287c4.475-2.735,12.647-7.658,20.287-5.333c6.691,2.036,13.229,8.314,16.314,11.085
			c3.085,2.771,16.457,16.187,20.915,20.287c-1.882-4.914-3.765-9.83-5.647-14.745c-3.023-7.91-5.717-16.108-8.052-24.679
			c-1.203-4.417-3.382-13.843-1.255-18.928c3.001-7.174,9.882-14.065,12.549-16.836c2.667-2.771,4.497-4.497,6.17-6.065
			c1.673-1.569,3.904-3.486,5.856-5.229c-1.534,0.523-2.353,0.889-4.601,1.569c-2.248,0.68-6.065,1.725-10.353,2.51
			c-4.288,0.784-16,2.196-19.242,2.301c-3.242,0.105-6.85,0.314-10.876,0.314c-4.026,0-13.385-0.523-17.15-0.732
			c-3.765-0.209-8.836-0.784-12.967-1.255c-4.131-0.471-21.751-3.503-26.875-4.706c-5.124-1.203-16.04-4.147-21.333-5.752
			C12.568,42.371,10.313,41.775,8.103,41.049z"/>
		<path style="fill-rule:evenodd;clip-rule:evenodd;fill:#DE2626;stroke:#DE2626;stroke-width:2.5967;stroke-miterlimit:15;" d="
			M172.27,39.832c-22.114,28.687-34.493,73.372-34.509,109.175c-35.863-10.086-81.505-11.163-116.759,1.453
			c42.173-6.415,84.714-0.531,124.288,14.965c0-42.525,15.72-93.837,39.843-128.626c-19.655-6.999-69.03-28.374-69.03-28.374
			s12.893,7.921,13,8C131.213,17.977,153.853,31.175,172.27,39.832z"/>
	</g>
</g>
</svg>
