<?xml version="1.0" encoding="iso-8859-1"?>
<!-- Generator: Adobe Illustrator 19.0.0, SVG Export Plug-In . SVG Version: 6.00 Build 0)  -->
<svg version="1.1" id="Starlink_logo" xmlns="http://www.w3.org/2000/svg" xmlns:xlink="http://www.w3.org/1999/xlink" x="0px"
	 y="0px" viewBox="0 0 5228.772 1544.249" style="enable-background:new 0 0 5228.772 1544.249;" xml:space="preserve">
<g id="text">
	<g id="Link">
		<path style="fill-rule:evenodd;clip-rule:evenodd;fill:#DE2626;" d="M5007.516,743.263c52.676,0,105.368,0,158.043,0
			c-61.079,74.375-122.177,148.772-183.256,223.146c68.458,88.512,136.937,177.051,205.395,265.562c-38.738,0-77.488,0-116.226,0
			c-13.061,0-37.382,3.518-46.737-1.844c-48.576-64.335-97.167-128.689-145.745-193.025c-11.683-15.367-23.369-30.738-35.052-46.104
			c-3.567-4.844-9.272-8.898-11.069-15.368C4891.078,898.183,4949.306,820.711,5007.516,743.263z"/>
		<path style="fill-rule:evenodd;clip-rule:evenodd;fill:#DE2626;" d="M4704.958,472.169c41.813,0,83.638,0,125.451,0
			c0,253.243,0,506.561,0,759.803c-41.813,0-83.638,0-125.451,0C4704.958,978.729,4704.958,725.411,4704.958,472.169z"/>
		<path style="fill-rule:evenodd;clip-rule:evenodd;fill:#DE2626;" d="M4632.393,1231.972c-41.813,0-83.638,0-125.451,0
			c0-72.121,0-144.263,0-216.384c0.004-44.027,2.095-88.568-14.144-116.183c-39.546-67.251-159.741-57.828-202.32-0.615
			c-0.206,111.05-0.411,222.133-0.616,333.182c-41.608,0-83.228,0-124.835,0c0-162.886,0-325.822,0-488.709
			c41.813,0,83.638,0,125.451,0c0,15.981,0,31.967,0,47.949c26.584-19.859,45.86-37.094,82.404-48.564
			c19.526-6.129,49.226-11.66,75.024-7.377c12.708,1.229,25.419,2.459,38.127,3.688c49.714,10.922,87.737,31.995,111.921,68.235
			c37.997,56.935,34.439,138.913,34.438,234.211C4632.393,1104.922,4632.393,1168.457,4632.393,1231.972z"/>
		<path style="fill-rule:evenodd;clip-rule:evenodd;fill:#DE2626;" d="M3975.619,743.263c41.813,0,83.638,0,125.451,0
			c0,162.886,0,325.822,0,488.709c-41.813,0-83.638,0-125.451,0C3975.619,1069.086,3975.619,906.15,3975.619,743.263z"/>
		<path style="fill-rule:evenodd;clip-rule:evenodd;fill:#DE2626;" d="M4030.965,494.913c40.114-0.666,64.587,15.143,76.254,42.416
			c22.828,53.359-14.715,100.878-58.421,108.192c-56.609,9.473-103.045-50.428-81.789-104.504
			c7.308-18.592,22.625-33.281,41.202-40.572C4015.796,498.602,4023.382,496.757,4030.965,494.913z"/>
		<path style="fill-rule:evenodd;clip-rule:evenodd;fill:#DE2626;" d="M3437.533,472.169c44.683,0,89.378,0,134.061,0
			c0,211.65,0,423.364,0,635.014c114.37,0,228.775,0,343.146,0c-0.205,41.592-0.41,83.197-0.615,124.79
			c-158.848,0-317.743,0-476.591,0C3437.533,978.729,3437.533,725.411,3437.533,472.169z"/>
	</g>
	<g id="Star">
		<path style="fill-rule:evenodd;clip-rule:evenodd;" d="M3070.404,1231.972c0-162.886,0-325.822,0-488.709
			c41.813,0,83.638,0,125.451,0c0,15.572,0,31.148,0,46.719c8.198-9.015,16.399-18.033,24.598-27.048
			c26.908-21.251,75.299-36.594,126.066-25.818c15.109,3.207,25.55,10.383,37.513,15.368
			c-14.758,39.134-29.52,78.279-44.277,117.413c-14.912-4.096-26.153-13.871-44.277-17.212
			c-46.752-8.619-90.974,19.951-99.623,50.408c0,85.439,0,170.903,0,256.341c-0.205,24.177-0.41,48.361-0.615,72.538
			C3153.632,1231.972,3112.012,1231.972,3070.404,1231.972z"/>
		<path id="a_2_" style="fill-rule:evenodd;clip-rule:evenodd;" d="M2780.145,1014.973c-21.521,8.418-38.444,5.579-52.271,22.745
			c-25.354,31.476-12.928,74.549,19.678,88.521c43.854,18.791,118.714-5.154,130.986-36.883c2.211-5.717,0.56-48.376-1.23-52.252
			c-7.994-4.303-15.989-8.607-23.983-12.909C2833.146,1015.978,2808.728,1015.036,2780.145,1014.973z M2887.147,1231.972
			c0-18.645,0-37.295,0-55.94c-0.41,0.205-0.82,0.41-1.23,0.615c-20.997,46.835-129.484,75.742-198.631,54.096
			c-54.768-17.145-85.856-56.363-97.163-117.413c-3.057-16.506-1.718-39.165,1.229-54.096
			c15.915-80.607,63.334-112.865,145.745-127.249c24.479-4.273,57.111-2.365,78.714,3.074c23.666,5.958,44.228,14.397,62.111,25.819
			c0.205,0,0.41,0,0.615,0c1.463-47.101-4.53-89.457-31.978-109.422c-52.074-37.877-144.994-2.458-188.176,17.827
			c-7.994-22.947-15.99-45.902-23.984-68.85c-1.796-5.104-8.313-19.631-6.149-22.745c18.295-17.6,73.457-31.549,103.927-38.728
			c16.355-3.853,35.32-7.186,54.731-7.377c168.109-1.654,209.703,69.876,209.7,236.055c0,27.66,0,55.328,0,82.988
			c-0.205,60.442-0.41,120.903-0.615,181.345C2959.716,1231.972,2923.426,1231.972,2887.147,1231.972z"/>
		<path style="fill-rule:evenodd;clip-rule:evenodd;" d="M2272.191,607.409c41.608,0,83.228,0,124.836,0c0,45.28,0,90.574,0,135.855
			c52.676,0,105.367,0,158.044,0c0,39.134,0,78.279,0,117.413c-52.677,0-105.368,0-158.044,0c0,41.182,0,82.378,0,123.56
			c-0.005,77.401-2.663,166.31,89.168,138.314c18.061-5.506,30.068-17.376,45.507-23.974c12.502,31.963,25.01,63.935,37.512,95.897
			c-6.654,8.382-18.158,12.872-27.673,18.442c-61.278,35.872-181.567,45.906-227.534-11.68
			c-43.981-55.099-41.819-130.685-41.817-229.908C2272.191,850.033,2272.191,728.703,2272.191,607.409z"/>
		<path style="fill-rule:evenodd;clip-rule:evenodd;" d="M1955.489,459.874c94.55-1.578,192.571,29.073,231.224,81.144
			c-23.776,33.397-47.559,66.804-71.335,100.201c-1.845-1.844-3.689-3.689-5.534-5.533c-7.994-6.556-15.99-13.115-23.984-19.671
			c-19.668-13.957-42.662-23.217-70.72-28.892c-58.838-11.901-117.452,8.29-134.676,46.719c-4.448,9.926-4.714,18.689-6.765,31.966
			c-2.743,17.759,4.82,37.86,11.684,49.178c28.124,46.372,90.097,66.577,142.055,89.136
			c66.034,28.669,128.315,60.287,164.193,119.257c13.787,22.66,33.922,75.106,27.058,116.798
			c-3.263,19.822-4.119,38.28-10.454,54.711c-30.811,79.917-93.685,123.754-184.487,143.846
			c-102.885,22.767-209.261-17.913-264.431-60.243c-14.538-11.154-40.47-34.926-44.891-54.711
			c25.416-30.118,50.839-60.246,76.255-90.365c0.204,0,0.41,0,0.615,0c4.423,9.447,14.878,18.256,22.753,24.589
			c39.213,31.533,71.063,49.793,132.831,60.243c71.463,12.091,146.293-35.188,128.526-106.963
			c-13.48-54.456-68.882-78.753-116.227-99.586c-82.909-36.482-174.306-73.841-210.315-157.37
			c-10.943-25.383-23.074-64.832-16.604-103.889c3.86-23.304,8.11-43.288,15.988-61.473c13.275-30.644,31.92-57.027,56.576-76.226
			c25.886-20.157,55.984-34.903,92.244-44.875c13.528-2.254,27.059-4.508,40.587-6.762
			C1943.599,460.694,1949.545,460.284,1955.489,459.874z"/>
	</g>
</g>
<g id="Graphic">
	<path style="fill-rule:evenodd;clip-rule:evenodd;fill:#DE2626;" d="M827.148,42.535c-31.89-2.988-62.855,0.56-96,15
		c-33.667,14.667-101.42,76.776-62,134c22.909,33.255,83.674,35.614,92,75c7.092,33.551-34.867,50.828-64,42
		c-26.902-8.152-44.195-29.06-62-45c6.313,32.236,29.192,64.132,45,81c54.666,58.333,169.443,71.212,232,19
		c9.666-8.999,34-29.333,44-61c5.094-16.13,7.279-58.82-39-81c-34.032-16.311-69.841-32.563-76-59
		c-6.641-28.505,26.723-55.158,59-47c27.834,7.035,41,25.167,62,46c1.425,1.413,6.833,5.166,6,2
		C944.908,78.239,891.038,48.523,827.148,42.535z"/>
	<path style="fill-rule:evenodd;clip-rule:evenodd;fill:#DE2626;" d="M27.149,302.535c56.994,31.663,114.005,63.336,171,95
		c74.225,44.049,147.971,88.717,217,138c23.357,16.676,48.5,36.5,68,55c19.5,18.5,105.719,90.932,98,184
		c-10.147,122.342-147.55,288.855-230,405c-19.332,24.997-56.723,72.782-58,75c-0.874,1.613-0.083,2.479,2,1
		c2.083-1.479,94-70,112-83c45.5-33,179.511-134.414,277-194c42.797-26.158,120.941-73.226,194-51c63.988,19.466,126.5,79.5,156,106
		c29.5,26.5,157.369,154.789,200,194c-17.998-46.995-36.002-94.005-54-141c-28.907-75.638-54.669-154.037-77-236
		c-11.507-42.237-32.345-132.375-12-181c28.702-68.6,94.5-134.5,120-161c25.5-26.5,43-43,59-58c16-15,37.335-33.335,56-50
		c-14.665,5-22.5,8.5-44,15c-21.5,6.5-58,16.5-99,24c-41,7.5-153,21-184,22c-31,1-65.5,3-104,3c-38.5,0-128-5-164-7
		c-36-2-84.5-7.5-124-12c-39.5-4.5-208-33.5-257-45c-49-11.5-152.5-37.5-204-55C94.649,328.035,66.811,318.367,27.149,302.535z"/>
	<path style="fill-rule:evenodd;clip-rule:evenodd;fill:#DE2626;" d="M1085.148,16.535c-0.046,3.999,17.571,14.985,26,21
		c30.25,21.589,60.573,42.854,92,64c87.816,59.088,179.634,110.18,280,158c58.723,27.979,155.393,61.504,150,59
		c-15.285,19.828-29.661,45.349-43,66c-40.579,62.826-74.554,131.597-106,204c-53.243,122.589-102.436,260.532-137,414
		c-25.112,111.502-43.94,230.906-44,360c-21.331-5.999-43.919-12.001-65-17c-33.329-7.416-87.671-18.834-130-25
		c-44.079-6.583-98.672-13.167-148-17c-16.749-1.167-36.002-2.333-53-3c-24.997-1-50.003-2-75-3c-36.996-0.25-74.004-1-111,0
		c-20.998,0.333-41.752,1.417-63,2c-74.106,4.416-157.346,9.6-230,21c-57.826,9.073-99.503,14.777-154,27
		c-22.149,4.968-59.339,13.575-76,20c-1.28,11.167,0.03,11,1,11c37.996-6.999,70.504-12,115-18c33.83-4,62.671-6,99-8
		c18.665-1.333,47.335-2.667,66-3c30.525-0.255,73.515-0.838,104,0c30.664,1.333,62.337,4.667,93,6
		c77.427,7.4,174.745,15.744,257,35c95.105,22.264,189.048,40.087,277,70c52.828,16.665,109.672,37.335,165,59c0-2,0-10,0-12
		c-0.957-26.567,1.996-77.63,5-101c2.333-24.998,4.667-55.002,9-85c8.925-58.489,19.87-116.712,31-172c11.297-56.114,15-76.5,43-179
		c17.864-65.395,67.239-238.688,151-423c44.188-97.231,93.654-188.277,142-258c-39.748-11.909-134.667-42.667-188-61
		c-53.333-18.333-214.497-78.958-316-126C1196.488,74.205,1140.476,46.866,1085.148,16.535z"/>
</g>
</svg>
