<?xml version="1.0" encoding="iso-8859-1"?>
<!-- Generator: Adobe Illustrator 19.0.0, SVG Export Plug-In . SVG Version: 6.00 Build 0)  -->
<svg version="1.1" id="Starlink_logo" xmlns="http://www.w3.org/2000/svg" xmlns:xlink="http://www.w3.org/1999/xlink" x="0px"
	 y="0px" viewBox="0 0 567.178 167.509" style="enable-background:new 0 0 567.178 167.509;" xml:space="preserve">
<g id="text">
	<g id="Link">
		<g id="k">
			<g>
				<path style="fill-rule:evenodd;clip-rule:evenodd;fill:#DE2626;" d="M536.866,105.539c6.19-7.537,12.382-15.077,18.572-22.615
					h-16.017c-5.899,7.849-11.8,15.7-17.7,23.549c0.182,0.656,0.76,1.067,1.122,1.557c1.184,1.557,2.368,3.115,3.552,4.672
					c4.923,6.52,9.847,13.042,14.77,19.562c0.948,0.543,3.413,0.187,4.737,0.187h11.779
					C550.744,123.482,543.804,114.509,536.866,105.539z M508.759,132.452h12.714V55.451h-12.714V132.452z"/>
			</g>
		</g>
		<path id="n" style="fill-rule:evenodd;clip-rule:evenodd;fill:#DE2626;" d="M501.405,132.452c-4.237,0-8.476,0-12.714,0
			c0-7.309,0-14.62,0-21.929c0-4.462,0.212-8.976-1.433-11.774c-4.008-6.816-16.189-5.861-20.504-0.062
			c-0.021,11.254-0.042,22.512-0.062,33.766c-4.217,0-8.435,0-12.651,0c0-16.508,0-33.02,0-49.528c4.237,0,8.476,0,12.714,0
			c0,1.62,0,3.24,0,4.859c2.694-2.013,4.648-3.759,8.351-4.922c1.979-0.621,4.989-1.182,7.603-0.748
			c1.288,0.125,2.576,0.249,3.864,0.374c5.038,1.107,8.892,3.243,11.343,6.915c3.851,5.77,3.49,14.078,3.49,23.736
			C501.405,119.576,501.405,126.015,501.405,132.452z"/>
		<g id="i">
			<path style="fill-rule:evenodd;clip-rule:evenodd;fill:#DE2626;" d="M434.845,132.452c4.237,0,8.476,0,12.714,0
				c0-16.508,0-33.02,0-49.528c-4.237,0-8.476,0-12.714,0C434.845,99.432,434.845,115.944,434.845,132.452z"/>
			<path style="fill-rule:evenodd;clip-rule:evenodd;fill:#DE2626;" d="M442.261,73.019c4.429-0.741,8.234-5.557,5.921-10.965
				c-1.182-2.764-3.663-4.366-7.728-4.299c-0.769,0.187-1.537,0.374-2.306,0.561c-1.883,0.739-3.435,2.228-4.176,4.112
				C431.818,67.908,436.524,73.979,442.261,73.019z"/>
		</g>
		<path id="L" style="fill-rule:evenodd;clip-rule:evenodd;fill:#DE2626;" d="M380.313,55.451c4.528,0,9.058,0,13.586,0
			c0,21.449,0,42.905,0,64.355c11.591,0,23.185,0,34.776,0c-0.021,4.215-0.042,8.432-0.062,12.647c-16.098,0-32.201,0-48.3,0
			C380.313,106.787,380.313,81.115,380.313,55.451z"/>
	</g>
	<g id="Star">
		<g>
			<path id="r_8_" style="fill-rule:evenodd;clip-rule:evenodd;" d="M343.107,132.452c0-16.508,0-33.02,0-49.528
				c4.237,0,8.476,0,12.714,0c0,1.578,0,3.157,0,4.735c0.831-0.914,1.662-1.828,2.493-2.741c2.727-2.154,7.631-3.709,12.776-2.617
				c1.531,0.325,2.589,1.052,3.802,1.557c-1.496,3.966-2.992,7.933-4.487,11.899c-1.511-0.415-2.65-1.406-4.487-1.744
				c-4.738-0.874-9.22,2.022-10.096,5.109c0,8.659,0,17.32,0,25.979c-0.021,2.45-0.042,4.901-0.062,7.351
				C351.542,132.452,347.324,132.452,343.107,132.452z"/>
			<path id="a_8_" style="fill-rule:evenodd;clip-rule:evenodd;" d="M313.691,110.461c-2.181,0.853-3.896,0.565-5.297,2.305
				c-2.569,3.19-1.31,7.555,1.994,8.971c4.444,1.904,12.031-0.522,13.275-3.738c0.224-0.579,0.057-4.903-0.125-5.295
				c-0.81-0.436-1.62-0.872-2.431-1.308C319.062,110.562,316.588,110.467,313.691,110.461z M324.535,132.452c0-1.89,0-3.78,0-5.669
				c-0.042,0.021-0.083,0.042-0.125,0.062c-2.128,4.746-13.122,7.676-20.13,5.482c-5.55-1.738-8.701-5.712-9.847-11.899
				c-0.31-1.673-0.174-3.969,0.125-5.482c1.613-8.169,6.419-11.438,14.77-12.896c2.481-0.433,5.788-0.24,7.977,0.311
				c2.398,0.604,4.482,1.459,6.295,2.617c0.021,0,0.042,0,0.062,0c0.148-4.773-0.459-9.066-3.241-11.089
				c-5.277-3.839-14.694-0.249-19.07,1.807c-0.81-2.326-1.62-4.652-2.431-6.977c-0.182-0.517-0.843-1.989-0.623-2.305
				c1.854-1.784,7.444-3.197,10.532-3.925c1.657-0.391,3.579-0.728,5.547-0.748c17.037-0.168,21.252,7.082,21.252,23.923
				c0,2.803,0,5.607,0,8.41c-0.021,6.125-0.042,12.253-0.062,18.378C331.889,132.452,328.212,132.452,324.535,132.452z"/>
			<path id="t_8_" style="fill-rule:evenodd;clip-rule:evenodd;" d="M262.213,69.156c4.217,0,8.435,0,12.651,0
				c0,4.589,0,9.179,0,13.768c5.338,0,10.678,0,16.017,0c0,3.966,0,7.933,0,11.899c-5.338,0-10.678,0-16.017,0
				c0,4.174,0,8.348,0,12.522c-0.001,7.844-0.27,16.854,9.037,14.017c1.83-0.558,3.047-1.761,4.612-2.43
				c1.267,3.239,2.535,6.479,3.802,9.719c-0.674,0.849-1.84,1.304-2.805,1.869c-6.21,3.635-18.401,4.652-23.059-1.184
				c-4.457-5.584-4.238-13.244-4.238-23.3C262.213,93.745,262.213,81.449,262.213,69.156z"/>
			<path id="S_8_" style="fill-rule:evenodd;clip-rule:evenodd;" d="M230.117,54.205c9.582-0.16,19.516,2.946,23.433,8.223
				c-2.41,3.385-4.82,6.77-7.229,10.155c-0.187-0.187-0.374-0.374-0.561-0.561c-0.81-0.664-1.62-1.329-2.431-1.994
				c-1.993-1.414-4.324-2.353-7.167-2.928c-5.963-1.206-11.903,0.84-13.649,4.735c-0.451,1.006-0.478,1.894-0.686,3.24
				c-0.278,1.8,0.488,3.837,1.184,4.984c2.85,4.699,9.131,6.747,14.396,9.033c6.692,2.905,13.004,6.11,16.64,12.086
				c1.397,2.296,3.438,7.612,2.742,11.837c-0.331,2.009-0.417,3.879-1.059,5.545c-3.122,8.099-9.494,12.542-18.697,14.578
				c-10.427,2.307-21.207-1.815-26.799-6.105c-1.473-1.13-4.101-3.539-4.549-5.545c2.576-3.052,5.152-6.106,7.728-9.158
				c0.021,0,0.042,0,0.062,0c0.448,0.957,1.508,1.85,2.306,2.492c3.974,3.196,7.202,5.046,13.462,6.105
				c7.242,1.225,14.826-3.566,13.025-10.84c-1.366-5.519-6.981-7.981-11.779-10.092c-8.402-3.697-17.665-7.483-21.314-15.949
				c-1.109-2.572-2.338-6.57-1.683-10.529c0.391-2.362,0.822-4.387,1.62-6.23c1.345-3.106,3.235-5.779,5.734-7.725
				c2.623-2.043,5.674-3.537,9.348-4.548c1.371-0.228,2.742-0.457,4.113-0.685C228.912,54.288,229.515,54.246,230.117,54.205z"/>
		</g>
		<g>
			<path id="r_7_" d="M343.107,132.452c0-16.508,0-33.02,0-49.528c4.237,0,8.476,0,12.714,0c0,1.578,0,3.157,0,4.735
				c0.831-0.914,1.662-1.828,2.493-2.741c2.727-2.154,7.631-3.709,12.776-2.617c1.531,0.325,2.589,1.052,3.802,1.557
				c-1.496,3.966-2.992,7.933-4.487,11.899c-1.511-0.415-2.65-1.406-4.487-1.744c-4.738-0.874-9.22,2.022-10.096,5.109
				c0,8.659,0,17.32,0,25.979c-0.021,2.45-0.042,4.901-0.062,7.351C351.542,132.452,347.324,132.452,343.107,132.452z"/>
			<path id="a_7_" d="M313.691,110.461c-2.181,0.853-3.896,0.565-5.297,2.305c-2.569,3.19-1.31,7.555,1.994,8.971
				c4.444,1.904,12.031-0.522,13.275-3.738c0.224-0.579,0.057-4.903-0.125-5.295c-0.81-0.436-1.62-0.872-2.431-1.308
				C319.062,110.562,316.588,110.467,313.691,110.461z M324.535,132.452c0-1.89,0-3.78,0-5.669
				c-0.042,0.021-0.083,0.042-0.125,0.062c-2.128,4.746-13.122,7.676-20.13,5.482c-5.55-1.738-8.701-5.712-9.847-11.899
				c-0.31-1.673-0.174-3.969,0.125-5.482c1.613-8.169,6.419-11.438,14.77-12.896c2.481-0.433,5.788-0.24,7.977,0.311
				c2.398,0.604,4.482,1.459,6.295,2.617c0.021,0,0.042,0,0.062,0c0.148-4.773-0.459-9.066-3.241-11.089
				c-5.277-3.839-14.694-0.249-19.07,1.807c-0.81-2.326-1.62-4.652-2.431-6.977c-0.182-0.517-0.843-1.989-0.623-2.305
				c1.854-1.784,7.444-3.197,10.532-3.925c1.657-0.391,3.579-0.728,5.547-0.748c17.037-0.168,21.252,7.082,21.252,23.923
				c0,2.803,0,5.607,0,8.41c-0.021,6.125-0.042,12.253-0.062,18.378C331.889,132.452,328.212,132.452,324.535,132.452z"/>
			<path id="t_7_" d="M262.213,69.156c4.217,0,8.435,0,12.651,0c0,4.589,0,9.179,0,13.768c5.338,0,10.678,0,16.017,0
				c0,3.966,0,7.933,0,11.899c-5.338,0-10.678,0-16.017,0c0,4.174,0,8.348,0,12.522c-0.001,7.844-0.27,16.854,9.037,14.017
				c1.83-0.558,3.047-1.761,4.612-2.43c1.267,3.239,2.535,6.479,3.802,9.719c-0.674,0.849-1.84,1.304-2.805,1.869
				c-6.21,3.635-18.401,4.652-23.059-1.184c-4.457-5.584-4.238-13.244-4.238-23.3C262.213,93.745,262.213,81.449,262.213,69.156z"/>
			<path id="S_7_" d="M230.117,54.205c9.582-0.16,19.516,2.946,23.433,8.223c-2.41,3.385-4.82,6.77-7.229,10.155
				c-0.187-0.187-0.374-0.374-0.561-0.561c-0.81-0.664-1.62-1.329-2.431-1.994c-1.993-1.414-4.324-2.353-7.167-2.928
				c-5.963-1.206-11.903,0.84-13.649,4.735c-0.451,1.006-0.478,1.894-0.686,3.24c-0.278,1.8,0.488,3.837,1.184,4.984
				c2.85,4.699,9.131,6.747,14.396,9.033c6.692,2.905,13.004,6.11,16.64,12.086c1.397,2.296,3.438,7.612,2.742,11.837
				c-0.331,2.009-0.417,3.879-1.059,5.545c-3.122,8.099-9.494,12.542-18.697,14.578c-10.427,2.307-21.207-1.815-26.799-6.105
				c-1.473-1.13-4.101-3.539-4.549-5.545c2.576-3.052,5.152-6.106,7.728-9.158c0.021,0,0.042,0,0.062,0
				c0.448,0.957,1.508,1.85,2.306,2.492c3.974,3.196,7.202,5.046,13.462,6.105c7.242,1.225,14.826-3.566,13.025-10.84
				c-1.366-5.519-6.981-7.981-11.779-10.092c-8.402-3.697-17.665-7.483-21.314-15.949c-1.109-2.572-2.338-6.57-1.683-10.529
				c0.391-2.362,0.822-4.387,1.62-6.23c1.345-3.106,3.235-5.779,5.734-7.725c2.623-2.043,5.674-3.537,9.348-4.548
				c1.371-0.228,2.742-0.457,4.113-0.685C228.912,54.288,229.515,54.246,230.117,54.205z"/>
		</g>
	</g>
</g>
<g id="Graphic">
	<g>
		<path style="fill-rule:evenodd;clip-rule:evenodd;fill:#DE2626;" d="M98.096,9.294c-3.335-0.313-6.573,0.059-10.039,1.569
			c-3.521,1.534-10.606,8.029-6.484,14.013c2.396,3.478,8.75,3.724,9.621,7.843c0.742,3.508-3.646,5.315-6.693,4.392
			c-2.813-0.853-4.622-3.039-6.484-4.706c0.66,3.371,3.053,6.706,4.706,8.47c5.717,6.1,17.719,7.447,24.261,1.987
			c1.011-0.941,3.556-3.068,4.601-6.379c0.533-1.687,0.761-6.151-4.078-8.47c-3.559-1.706-7.304-3.405-7.948-6.17
			c-0.694-2.981,2.795-5.768,6.17-4.915c2.911,0.736,4.354,2.48,6.55,4.659c0.149,0.148,0.561,0.361,0.561,0.361
			C110.411,13.027,104.777,9.92,98.096,9.294z"/>
		<path style="fill-rule:evenodd;clip-rule:evenodd;fill:#DE2626;stroke:#DE2626;stroke-width:2.0773;stroke-miterlimit:15;" d="
			M17.969,38.309c2.285,1.402,8.725,4.726,14.351,8.108c7.736,4.651,15.474,9.277,22.692,14.431
			c2.443,1.744,5.072,3.817,7.111,5.752c2.039,1.935,11.055,9.509,10.248,19.242c-1.061,12.794-15.43,30.207-24.052,42.352
			c-1.313,1.698-3.428,3.887-4.799,5.688c-0.74,0.972-1.363,1.634-1.662,2.167c0.402-0.195,1.402-0.909,2.597-1.717
			c3.294-2.228,8.337-5.871,9.72-6.869c4.758-3.451,18.772-14.056,28.967-20.287c4.475-2.735,12.647-7.658,20.287-5.333
			c6.691,2.036,13.229,8.314,16.313,11.085c3.085,2.771,16.457,16.187,20.915,20.287c-1.882-4.914-3.765-9.83-5.647-14.745
			c-3.023-7.91-5.717-16.108-8.052-24.679c-1.203-4.417-3.382-13.843-1.255-18.928c3.001-7.174,9.882-14.065,12.549-16.836
			c2.667-2.771,4.497-4.497,6.17-6.065c1.673-1.569,3.904-3.486,5.856-5.229c-1.534,0.523-2.353,0.889-4.601,1.569
			c-2.248,0.68-6.065,1.725-10.353,2.51c-4.288,0.784-16,2.196-19.242,2.301c-3.242,0.105-6.85,0.314-10.876,0.314
			c-4.026,0-13.385-0.523-17.15-0.732c-3.765-0.209-8.836-0.784-12.967-1.255c-4.131-0.471-21.751-3.503-26.875-4.706
			c-5.124-1.203-16.04-4.147-21.333-5.752C22.434,39.631,20.179,39.035,17.969,38.309z"/>
		<path style="fill-rule:evenodd;clip-rule:evenodd;fill:#DE2626;stroke:#DE2626;stroke-width:2.5967;stroke-miterlimit:15;" d="
			M125.887,7.357c1.246,1.194,2.359,2.043,3.22,2.701c2.856,2.181,4.607,3.294,7.894,5.505c9.183,6.179,18.954,11.359,29.449,16.36
			c6.141,2.926,16.25,6.432,15.686,6.17c-1.598,2.073-3.102,4.742-4.497,6.902c-4.243,6.57-7.796,13.762-11.085,21.333
			c-5.568,12.82-10.712,27.245-14.327,43.293c-2.626,11.66-4.595,24.147-4.601,37.647c-2.231-0.627-4.593-1.255-6.797-1.778
			c-3.485-0.775-9.168-1.97-13.595-2.614c-4.609-0.688-10.318-1.377-15.477-1.778c-1.751-0.122-3.765-0.244-5.542-0.314
			c-2.614-0.105-5.229-0.209-7.843-0.314c-3.869-0.026-7.739-0.105-11.608,0c-2.196,0.035-4.366,0.148-6.588,0.209
			c-7.75,0.462-16.454,1.004-24.052,2.196c-6.047,0.949-10.405,1.545-16.104,2.823c-2.316,0.52-6.08,1.519-7.822,2.191
			c-0.779,0.39-1.331,0.831-1.331,0.831s0.759,0,1.227,0c3.869-0.519,7.456-1.035,12.109-1.662
			c3.538-0.418,6.554-0.627,10.353-0.837c1.952-0.139,4.95-0.279,6.902-0.314c3.192-0.027,7.688-0.088,10.876,0
			c3.207,0.139,6.519,0.488,9.725,0.627c8.097,0.774,18.274,1.646,26.875,3.66c9.945,2.328,19.769,4.192,28.967,7.32
			c5.524,1.743,11.469,3.904,17.255,6.17c0-0.209,0-1.046,0-1.255c-0.1-2.778,0.209-8.118,0.523-10.562
			c0.244-2.614,0.488-5.752,0.941-8.889c0.933-6.116,2.078-12.205,3.242-17.987c1.181-5.868,1.569-8,4.497-18.719
			c1.868-6.839,7.031-24.961,15.791-44.235c4.621-10.168,9.794-19.689,14.849-26.98c-4.157-1.245-14.083-4.462-19.66-6.379
			c-5.577-1.917-22.53-8.511-33.145-13.43C135.966,12.141,128.068,8.292,125.887,7.357z"/>
	</g>
</g>
</svg>
