<svg version="1.1"
     id="facebookLogo"
     baseProfile="full"
     height="100" width="100"
     fill="#3b5998"
     viewBox="0 0 198 384.533"
     xmlns="http://www.w3.org/2000/svg">
	<path d="M198,64.533c-75.981-3.327-70.282,3.784-69,76c22.331,0.333,44.669,0.667,67,1c-3,22.331-6,44.669-9,67
					 c-19.331,0-38.669,0-58,0c0,58.661,0,117.339,0,176c-23.664,0-47.336,0-71,0c0.333-58.327,0.667-116.672,1-175c-0.333-0.333-0.667-0.667-1-1c19.331,0-38.669,0-58,0c0-22.664,0-45.336,0-68c19.665,0,39.335,0,59,0c0-16.998,0-34.002,0-51
					 c0.171-70.276,43.131-100.464,139-86C198,23.865,198,44.202,198,64.533z"/>
</svg>