<svg version="1.1"
     id="googlePlusLogo"
     baseProfile="full"
     height="63.5" width="100"
     fill="#DD4B39"
     viewBox="-247 470.9 100 63.5"
     xmlns="http://www.w3.org/2000/svg">
<g>
	<path d="M-215.2,498.1c0,3.6,0,7.2,0,10.8c6.1,0.2,12.1,0.1,18.2,0.2c-2.7,13.4-20.9,17.8-30.6,9
		c-9.9-7.7-9.5-24.6,0.9-31.7c7.2-5.8,17.5-4.3,24.7,0.7c2.8-2.6,5.5-5.4,8.1-8.3c-6-4.8-13.4-8.2-21.2-7.8
		c-16.4-0.5-31.4,13.8-31.7,30.1c-1,13.4,7.7,26.5,20.2,31.2c12.4,4.8,28.2,1.5,36.1-9.6c5.2-7,6.3-16.1,5.7-24.6
		C-195,498.1-205.1,498.1-215.2,498.1z"/>
	<path d="M-156.1,498.1c0-3,0-6.1-0.1-9.1c-3,0-6,0-9,0c0,3-0.1,6-0.1,9.1c-3,0-6.1,0-9.1,0.1c0,3,0,6,0,9
		c3,0,6.1,0.1,9.1,0.1c0,3,0,6,0.1,9.1c3,0,6,0,9,0c0-3,0-6,0.1-9.1c3,0,6.1,0,9.1-0.1c0-3,0-6,0-9
		C-150,498.1-153.1,498.1-156.1,498.1z"/>
</g>
</svg>
