<svg xmlns="http://www.w3.org/2000/svg" style="display: none;">
  <symbol id="iconCheck" viewBox="0 0 24 24">
    <path d="M0 0h24v24H0z" fill="none"/>
    <path d="M9 16.17L4.83 12l-1.42 1.41L9 19 21 7l-1.41-1.41z"/>
  </symbol>
  <symbol id="iconChevronLeft" viewBox="0 0 24 24">
    <path d="M15.41 7.41L14 6l-6 6 6 6 1.41-1.41L10.83 12z"/>
    <path d="M0 0h24v24H0z" fill="none"/>
  </symbol>
  <symbol id="iconChevronRight" viewBox="0 0 24 24">
    <path d="M10 6L8.59 7.41 13.17 12l-4.58 4.59L10 18l6-6z"/>
    <path d="M0 0h24v24H0z" fill="none"/>
  </symbol>
  <symbol id="iconExpandLess" viewBox="0 0 24 24">
    <path d="M12 8l-6 6 1.41 1.41L12 10.83l4.59 4.58L18 14z"/>
    <path d="M0 0h24v24H0z" fill="none"/>
  </symbol>
  <symbol id="iconExpandMore" viewBox="0 0 24 24">
    <path d="M16.59 8.59L12 13.17 7.41 8.59 6 10l6 6 6-6z"/>
    <path d="M0 0h24v24H0z" fill="none"/>
  </symbol>
  <symbol id="iconCancel" viewBox="0 0 24 24">
    <path
        d="M12 2C6.47 2 2 6.47 2 12s4.47 10 10 10 10-4.47 10-10S17.53 2 12 2zm5 13.59L15.59 17 12 13.41 8.41 17 7 15.59 10.59 12 7 8.41 8.41 7 12 10.59 15.59 7 17 8.41 13.41 12 17 15.59z"/>
    <path d="M0 0h24v24H0z" fill="none"/>
  </symbol>
</svg>