<svg xmlns="http://www.w3.org/2000/svg" style="display: none;">
  <symbol id="iconCheck" viewBox="0 0 24 24">
    <path d="M0 0h24v24H0z" fill="none"/>
    <path d="M9 16.17L4.83 12l-1.42 1.41L9 19 21 7l-1.41-1.41z"/>
  </symbol>
  <symbol id="iconChevronLeft" viewBox="0 0 24 24">
    <path d="M15.41 7.41L14 6l-6 6 6 6 1.41-1.41L10.83 12z"/>
    <path d="M0 0h24v24H0z" fill="none"/>
  </symbol>
  <symbol id="iconChevronRight" viewBox="0 0 24 24">
    <path d="M10 6L8.59 7.41 13.17 12l-4.58 4.59L10 18l6-6z"/>
    <path d="M0 0h24v24H0z" fill="none"/>
  </symbol>
  <symbol id="iconExpandLess" viewBox="0 0 24 24">
    <path d="M12 8l-6 6 1.41 1.41L12 10.83l4.59 4.58L18 14z"/>
    <path d="M0 0h24v24H0z" fill="none"/>
  </symbol>
  <symbol id="iconExpandMore" viewBox="0 0 24 24">
    <path d="M16.59 8.59L12 13.17 7.41 8.59 6 10l6 6 6-6z"/>
    <path d="M0 0h24v24H0z" fill="none"/>
  </symbol>
  <symbol id="iconCancel" viewBox="0 0 24 24">
    <path
        d="M12 2C6.47 2 2 6.47 2 12s4.47 10 10 10 10-4.47 10-10S17.53 2 12 2zm5 13.59L15.59 17 12 13.41 8.41 17 7 15.59 10.59 12 7 8.41 8.41 7 12 10.59 15.59 7 17 8.41 13.41 12 17 15.59z"/>
    <path d="M0 0h24v24H0z" fill="none"/>
  </symbol>
  <symbol id="iconPhone" viewBox="-20 -20 562 562">
    <path d="M462.49,468.206l-33.937,33.937c-6.063,6.031-23.812,9.843-24.343,9.843c-107.435,0.906-210.869-41.279-286.883-117.309
	C41.096,318.46-1.137,214.619,0.035,106.872c0-0.063,3.891-17.312,9.938-23.312l33.937-33.968
	c12.453-12.437,36.295-18.062,52.998-12.5l7.156,2.406c16.703,5.562,34.155,23.999,38.78,40.967l17.093,62.717
	c4.64,17-1.594,41.186-14.031,53.623l-22.687,22.687c22.25,82.467,86.919,147.122,169.339,169.402l22.687-22.687
	c12.438-12.438,36.687-18.656,53.687-14.031l62.717,17.125c16.937,4.594,35.374,22.03,40.968,38.748l2.375,7.156
	C480.552,431.926,474.928,455.769,462.49,468.206z M287.995,255.993h31.999c0-35.343-28.655-63.998-63.998-63.998v31.999
	C273.636,223.994,287.995,238.368,287.995,255.993z M415.991,255.993c0-88.373-71.623-159.996-159.995-159.996v32
	c70.592,0,127.996,57.436,127.996,127.996H415.991z M255.996,0v31.999c123.496,0,223.993,100.497,223.993,223.994h31.999
	C511.988,114.622,397.367,0,255.996,0z"/>
  </symbol>
  <symbol id="iconFacebook" viewBox="0 0 198 384.533">
      <path d="M198,64.533c-75.981-3.327-70.282,3.784-69,76c22.331,0.333,44.669,0.667,67,1c-3,22.331-6,44.669-9,67 c-19.331,0-38.669,0-58,0c0,58.661,0,117.339,0,176c-23.664,0-47.336,0-71,0c0.333-58.327,0.667-116.672,1-175c-0.333-0.333-0.667-0.667-1-1c19.331,0-38.669,0-58,0c0-22.664,0-45.336,0-68c19.665,0,39.335,0,59,0c0-16.998,0-34.002,0-51 c0.171-70.276,43.131-100.464,139-86C198,23.865,198,44.202,198,64.533z"></path>
  </symbol>
  <symbol id="iconTwitter" viewBox="702 1232.89 100 100">
    <path d="M802,1252.734c-3.679,1.632-7.633,2.734-11.783,3.23c4.235-2.539,7.489-6.559,9.021-11.35	c-3.964,2.351-8.355,4.058-13.029,4.979c-3.742-3.988-9.074-6.479-14.975-6.479c-11.33,0-20.516,9.185-20.516,20.516	c0,1.608,0.181,3.174,0.531,4.675c-17.051-0.855-32.168-9.023-42.287-21.436c-1.766,3.03-2.778,6.554-2.778,10.314	c0,7.118,3.622,13.397,9.127,17.077c-3.363-0.107-6.527-1.03-9.293-2.566c-0.002,0.086-0.002,0.171-0.002,0.258	c0,9.94,7.072,18.232,16.457,20.117c-1.721,0.469-3.534,0.72-5.405,0.72c-1.322,0-2.607-0.129-3.86-0.368	c2.611,8.15,10.188,14.082,19.165,14.247c-7.021,5.503-15.868,8.783-25.48,8.783c-1.656,0-3.289-0.097-4.894-0.287	c9.079,5.821,19.864,9.218,31.449,9.218c37.737,0,58.373-31.262,58.373-58.373c0-0.89-0.021-1.774-0.06-2.654 	C795.771,1260.462,799.25,1256.849,802,1252.734"></path>
  </symbol>
  <symbol id="iconGooglePlus" viewBox="-247 470.9 100 63.5">
      <g>
        <path d="M-215.2,498.1c0,3.6,0,7.2,0,10.8c6.1,0.2,12.1,0.1,18.2,0.2c-2.7,13.4-20.9,17.8-30.6,9		c-9.9-7.7-9.5-24.6,0.9-31.7c7.2-5.8,17.5-4.3,24.7,0.7c2.8-2.6,5.5-5.4,8.1-8.3c-6-4.8-13.4-8.2-21.2-7.8		c-16.4-0.5-31.4,13.8-31.7,30.1c-1,13.4,7.7,26.5,20.2,31.2c12.4,4.8,28.2,1.5,36.1-9.6c5.2-7,6.3-16.1,5.7-24.6		C-195,498.1-205.1,498.1-215.2,498.1z"></path>
        <path d="M-156.1,498.1c0-3,0-6.1-0.1-9.1c-3,0-6,0-9,0c0,3-0.1,6-0.1,9.1c-3,0-6.1,0-9.1,0.1c0,3,0,6,0,9		c3,0,6.1,0.1,9.1,0.1c0,3,0,6,0.1,9.1c3,0,6,0,9,0c0-3,0-6,0.1-9.1c3,0,6.1,0,9.1-0.1c0-3,0-6,0-9		C-150,498.1-153.1,498.1-156.1,498.1z"></path>
      </g>
  </symbol>
</svg>