<svg version="1.1"
     baseProfile="full"
	 fill="#00aced"
     height="100" width="100"
     viewBox="702 1232.89 100 100"
     xmlns="http://www.w3.org/2000/svg">
    <path d="M802,1252.734c-3.679,1.632-7.633,2.734-11.783,3.23c4.235-2.539,7.489-6.559,9.021-11.35
	c-3.964,2.351-8.355,4.058-13.029,4.979c-3.742-3.988-9.074-6.479-14.975-6.479c-11.33,0-20.516,9.185-20.516,20.516
	c0,1.608,0.181,3.174,0.531,4.675c-17.051-0.855-32.168-9.023-42.287-21.436c-1.766,3.03-2.778,6.554-2.778,10.314
	c0,7.118,3.622,13.397,9.127,17.077c-3.363-0.107-6.527-1.03-9.293-2.566c-0.002,0.086-0.002,0.171-0.002,0.258
	c0,9.94,7.072,18.232,16.457,20.117c-1.721,0.469-3.534,0.72-5.405,0.72c-1.322,0-2.607-0.129-3.86-0.368
	c2.611,8.15,10.188,14.082,19.165,14.247c-7.021,5.503-15.868,8.783-25.48,8.783c-1.656,0-3.289-0.097-4.894-0.287
	c9.079,5.821,19.864,9.218,31.449,9.218c37.737,0,58.373-31.262,58.373-58.373c0-0.89-0.021-1.774-0.06-2.654
	C795.771,1260.462,799.25,1256.849,802,1252.734"/>
</svg>